<svg width="200" height="200" viewBox="0 0 200 200" fill="none" xmlns="http://www.w3.org/2000/svg">
  <!-- Coração laranja -->
  <path d="M100 170C100 170 30 120 30 70C30 45 50 30 70 30C85 30 95 40 100 50C105 40 115 30 130 30C150 30 170 45 170 70C170 120 100 170 100 170Z" fill="#FF9900"/>
  
  <!-- Detalhe interno do coração (mais claro) -->
  <path d="M100 160C100 160 40 115 40 75C40 55 55 42 70 42C82 42 92 50 100 62C108 50 118 42 130 42C145 42 160 55 160 75C160 115 100 160 100 160Z" fill="#FFAD33"/>
  
  <!-- Texto ONG (simplificado) -->
  <text x="100" y="195" font-family="Arial, sans-serif" font-size="18" font-weight="bold" fill="#2D1B00" text-anchor="middle">ONG ABRAÇA VIDAS</text>
</svg>
